<mxfile host="app.diagrams.net" modified="2023-08-27T15:13:39.594Z" agent="Mozilla/5.0 (Macintosh; Intel Mac OS X 10_15_7) AppleWebKit/537.36 (KHTML, like Gecko) Chrome/115.0.0.0 Safari/537.36" etag="0hHAtu1mvgG15AOg5dAV" version="21.3.3" type="github">
  <diagram name="第 1 页" id="HG4AACW3AOxU_QimLdI-">
    <mxGraphModel dx="766" dy="485" grid="1" gridSize="10" guides="1" tooltips="1" connect="1" arrows="1" fold="1" page="1" pageScale="1" pageWidth="827" pageHeight="1169" math="0" shadow="0">
      <root>
        <mxCell id="0" />
        <mxCell id="1" parent="0" />
        <mxCell id="cmUe419oTsf2xdQ2fUS6-1" value="" style="rounded=1;whiteSpace=wrap;html=1;arcSize=2;" vertex="1" parent="1">
          <mxGeometry x="50" y="280" width="300" height="200" as="geometry" />
        </mxCell>
        <mxCell id="cmUe419oTsf2xdQ2fUS6-2" value="" style="rounded=0;whiteSpace=wrap;html=1;" vertex="1" parent="1">
          <mxGeometry x="60" y="290" width="280" height="60" as="geometry" />
        </mxCell>
        <mxCell id="cmUe419oTsf2xdQ2fUS6-3" value="系统Bean" style="text;html=1;strokeColor=none;fillColor=none;align=center;verticalAlign=middle;whiteSpace=wrap;rounded=0;" vertex="1" parent="1">
          <mxGeometry x="170" y="290" width="60" height="18" as="geometry" />
        </mxCell>
      </root>
    </mxGraphModel>
  </diagram>
</mxfile>
